<mxfile host="app.diagrams.net" modified="2023-06-10T04:19:15.485Z" agent="Mozilla/5.0 (Windows NT 10.0; Win64; x64) AppleWebKit/537.36 (KHTML, like Gecko) Chrome/114.0.0.0 Safari/537.36 Edg/114.0.1823.43" etag="Nm9Q1utxbMMVu5_Cnfdi" version="21.3.8" type="github">
  <diagram name="PÃ¡gina-1" id="hTR6dV-8bSqWM__t6J_S">
    <mxGraphModel dx="2261" dy="759" grid="1" gridSize="10" guides="1" tooltips="1" connect="1" arrows="1" fold="1" page="1" pageScale="1" pageWidth="827" pageHeight="1169" math="0" shadow="0">
      <root>
        <mxCell id="0" />
        <mxCell id="1" parent="0" />
        <mxCell id="kzqeV2M7Gag7ha8aRrGK-57" value="&lt;font style=&quot;font-size: 20px;&quot;&gt;User&lt;/font&gt;" style="rounded=0;whiteSpace=wrap;html=1;" vertex="1" parent="1">
          <mxGeometry x="120" y="385" width="120" height="60" as="geometry" />
        </mxCell>
        <mxCell id="kzqeV2M7Gag7ha8aRrGK-58" value="&lt;span style=&quot;font-size: 20px;&quot;&gt;Account&lt;/span&gt;" style="rounded=0;whiteSpace=wrap;html=1;" vertex="1" parent="1">
          <mxGeometry x="530" y="385" width="120" height="60" as="geometry" />
        </mxCell>
        <mxCell id="kzqeV2M7Gag7ha8aRrGK-59" value="&lt;font style=&quot;font-size: 18px;&quot;&gt;Create&lt;/font&gt;" style="rhombus;whiteSpace=wrap;html=1;" vertex="1" parent="1">
          <mxGeometry x="330" y="320" width="120" height="80" as="geometry" />
        </mxCell>
        <mxCell id="kzqeV2M7Gag7ha8aRrGK-60" value="" style="endArrow=none;html=1;rounded=0;exitX=1;exitY=0.5;exitDx=0;exitDy=0;entryX=0;entryY=0.5;entryDx=0;entryDy=0;" edge="1" parent="1" target="kzqeV2M7Gag7ha8aRrGK-59">
          <mxGeometry width="50" height="50" relative="1" as="geometry">
            <mxPoint x="320" y="415" as="sourcePoint" />
            <mxPoint x="430" y="425" as="targetPoint" />
            <Array as="points">
              <mxPoint x="330" y="415" />
            </Array>
          </mxGeometry>
        </mxCell>
        <mxCell id="kzqeV2M7Gag7ha8aRrGK-61" value="" style="endArrow=none;html=1;rounded=0;entryX=1;entryY=0.5;entryDx=0;entryDy=0;" edge="1" parent="1" source="kzqeV2M7Gag7ha8aRrGK-58" target="kzqeV2M7Gag7ha8aRrGK-59">
          <mxGeometry width="50" height="50" relative="1" as="geometry">
            <mxPoint x="380" y="475" as="sourcePoint" />
            <mxPoint x="430" y="425" as="targetPoint" />
            <Array as="points">
              <mxPoint x="450" y="415" />
            </Array>
          </mxGeometry>
        </mxCell>
        <mxCell id="kzqeV2M7Gag7ha8aRrGK-62" value="&lt;font style=&quot;font-size: 16px;&quot;&gt;(0, n)&lt;/font&gt;" style="text;html=1;strokeColor=none;fillColor=none;align=center;verticalAlign=middle;whiteSpace=wrap;rounded=0;" vertex="1" parent="1">
          <mxGeometry x="260" y="380" width="60" height="30" as="geometry" />
        </mxCell>
        <mxCell id="kzqeV2M7Gag7ha8aRrGK-63" value="&lt;font style=&quot;font-size: 16px;&quot;&gt;(1, 1)&lt;/font&gt;" style="text;html=1;strokeColor=none;fillColor=none;align=center;verticalAlign=middle;whiteSpace=wrap;rounded=0;" vertex="1" parent="1">
          <mxGeometry x="450" y="380" width="60" height="30" as="geometry" />
        </mxCell>
        <mxCell id="kzqeV2M7Gag7ha8aRrGK-64" value="" style="ellipse;whiteSpace=wrap;html=1;aspect=fixed;fillColor=#FFFFFF;" vertex="1" parent="1">
          <mxGeometry x="30" y="375" width="20" height="20" as="geometry" />
        </mxCell>
        <mxCell id="kzqeV2M7Gag7ha8aRrGK-65" style="edgeStyle=orthogonalEdgeStyle;rounded=0;orthogonalLoop=1;jettySize=auto;html=1;exitX=0;exitY=1;exitDx=0;exitDy=0;" edge="1" parent="1" source="kzqeV2M7Gag7ha8aRrGK-66" target="kzqeV2M7Gag7ha8aRrGK-64">
          <mxGeometry relative="1" as="geometry" />
        </mxCell>
        <mxCell id="kzqeV2M7Gag7ha8aRrGK-66" value="" style="ellipse;whiteSpace=wrap;html=1;aspect=fixed;strokeColor=#F0F0F0;fillColor=#F0F0F0;" vertex="1" parent="1">
          <mxGeometry x="30" y="405" width="20" height="20" as="geometry" />
        </mxCell>
        <mxCell id="kzqeV2M7Gag7ha8aRrGK-67" value="" style="ellipse;whiteSpace=wrap;html=1;aspect=fixed;" vertex="1" parent="1">
          <mxGeometry x="30" y="445" width="20" height="20" as="geometry" />
        </mxCell>
        <mxCell id="kzqeV2M7Gag7ha8aRrGK-68" value="" style="ellipse;whiteSpace=wrap;html=1;aspect=fixed;" vertex="1" parent="1">
          <mxGeometry x="30" y="475" width="20" height="20" as="geometry" />
        </mxCell>
        <mxCell id="kzqeV2M7Gag7ha8aRrGK-69" value="" style="endArrow=none;html=1;rounded=0;exitX=1;exitY=0.5;exitDx=0;exitDy=0;entryX=0;entryY=0;entryDx=0;entryDy=0;" edge="1" parent="1" source="kzqeV2M7Gag7ha8aRrGK-64" target="kzqeV2M7Gag7ha8aRrGK-57">
          <mxGeometry width="50" height="50" relative="1" as="geometry">
            <mxPoint x="60" y="445" as="sourcePoint" />
            <mxPoint x="110" y="395" as="targetPoint" />
          </mxGeometry>
        </mxCell>
        <mxCell id="kzqeV2M7Gag7ha8aRrGK-70" value="" style="endArrow=none;html=1;rounded=0;entryX=0;entryY=0.25;entryDx=0;entryDy=0;exitX=1;exitY=0.5;exitDx=0;exitDy=0;" edge="1" parent="1" source="kzqeV2M7Gag7ha8aRrGK-66" target="kzqeV2M7Gag7ha8aRrGK-57">
          <mxGeometry width="50" height="50" relative="1" as="geometry">
            <mxPoint x="60" y="465" as="sourcePoint" />
            <mxPoint x="110" y="415" as="targetPoint" />
            <Array as="points">
              <mxPoint x="90" y="415" />
            </Array>
          </mxGeometry>
        </mxCell>
        <mxCell id="kzqeV2M7Gag7ha8aRrGK-71" value="" style="endArrow=none;html=1;rounded=0;entryX=0;entryY=0.5;entryDx=0;entryDy=0;exitX=1;exitY=0.5;exitDx=0;exitDy=0;" edge="1" parent="1" source="kzqeV2M7Gag7ha8aRrGK-67" target="kzqeV2M7Gag7ha8aRrGK-57">
          <mxGeometry width="50" height="50" relative="1" as="geometry">
            <mxPoint x="60" y="455" as="sourcePoint" />
            <mxPoint x="120" y="465" as="targetPoint" />
            <Array as="points">
              <mxPoint x="90" y="455" />
            </Array>
          </mxGeometry>
        </mxCell>
        <mxCell id="kzqeV2M7Gag7ha8aRrGK-72" value="" style="endArrow=none;html=1;rounded=0;exitX=1;exitY=0.5;exitDx=0;exitDy=0;entryX=0;entryY=0.75;entryDx=0;entryDy=0;" edge="1" parent="1" source="kzqeV2M7Gag7ha8aRrGK-68" target="kzqeV2M7Gag7ha8aRrGK-57">
          <mxGeometry width="50" height="50" relative="1" as="geometry">
            <mxPoint x="60" y="505" as="sourcePoint" />
            <mxPoint x="110" y="455" as="targetPoint" />
            <Array as="points">
              <mxPoint x="90" y="485" />
              <mxPoint x="120" y="485" />
            </Array>
          </mxGeometry>
        </mxCell>
        <mxCell id="kzqeV2M7Gag7ha8aRrGK-73" style="edgeStyle=orthogonalEdgeStyle;rounded=0;orthogonalLoop=1;jettySize=auto;html=1;exitX=0.5;exitY=1;exitDx=0;exitDy=0;" edge="1" parent="1" source="kzqeV2M7Gag7ha8aRrGK-66" target="kzqeV2M7Gag7ha8aRrGK-66">
          <mxGeometry relative="1" as="geometry" />
        </mxCell>
        <mxCell id="kzqeV2M7Gag7ha8aRrGK-74" value="&lt;span style=&quot;font-size: 16px;&quot;&gt;id&lt;/span&gt;" style="text;html=1;strokeColor=none;fillColor=none;align=center;verticalAlign=middle;whiteSpace=wrap;rounded=0;" vertex="1" parent="1">
          <mxGeometry x="-40" y="370" width="60" height="30" as="geometry" />
        </mxCell>
        <mxCell id="kzqeV2M7Gag7ha8aRrGK-75" value="&lt;span style=&quot;font-size: 16px;&quot;&gt;email&lt;/span&gt;" style="text;html=1;strokeColor=none;fillColor=none;align=center;verticalAlign=middle;whiteSpace=wrap;rounded=0;" vertex="1" parent="1">
          <mxGeometry x="-40" y="400" width="60" height="30" as="geometry" />
        </mxCell>
        <mxCell id="kzqeV2M7Gag7ha8aRrGK-76" value="&lt;span style=&quot;font-size: 16px;&quot;&gt;password&lt;/span&gt;" style="text;html=1;strokeColor=none;fillColor=none;align=center;verticalAlign=middle;whiteSpace=wrap;rounded=0;" vertex="1" parent="1">
          <mxGeometry x="-40" y="440" width="60" height="30" as="geometry" />
        </mxCell>
        <mxCell id="kzqeV2M7Gag7ha8aRrGK-77" value="&lt;span style=&quot;font-size: 16px;&quot;&gt;name&lt;/span&gt;" style="text;html=1;strokeColor=none;fillColor=none;align=center;verticalAlign=middle;whiteSpace=wrap;rounded=0;" vertex="1" parent="1">
          <mxGeometry x="-50" y="470" width="100" height="30" as="geometry" />
        </mxCell>
        <mxCell id="kzqeV2M7Gag7ha8aRrGK-78" value="" style="ellipse;whiteSpace=wrap;html=1;aspect=fixed;" vertex="1" parent="1">
          <mxGeometry x="720" y="385" width="20" height="20" as="geometry" />
        </mxCell>
        <mxCell id="kzqeV2M7Gag7ha8aRrGK-79" value="" style="ellipse;whiteSpace=wrap;html=1;aspect=fixed;" vertex="1" parent="1">
          <mxGeometry x="720" y="420" width="20" height="20" as="geometry" />
        </mxCell>
        <mxCell id="kzqeV2M7Gag7ha8aRrGK-80" value="" style="ellipse;whiteSpace=wrap;html=1;aspect=fixed;" vertex="1" parent="1">
          <mxGeometry x="720" y="465" width="20" height="20" as="geometry" />
        </mxCell>
        <mxCell id="kzqeV2M7Gag7ha8aRrGK-81" value="" style="endArrow=none;html=1;rounded=0;exitX=1;exitY=0.5;exitDx=0;exitDy=0;" edge="1" parent="1" source="kzqeV2M7Gag7ha8aRrGK-57">
          <mxGeometry width="50" height="50" relative="1" as="geometry">
            <mxPoint x="240" y="415" as="sourcePoint" />
            <mxPoint x="320" y="415" as="targetPoint" />
          </mxGeometry>
        </mxCell>
        <mxCell id="kzqeV2M7Gag7ha8aRrGK-82" value="" style="endArrow=none;html=1;rounded=0;exitX=1;exitY=0;exitDx=0;exitDy=0;" edge="1" parent="1" source="kzqeV2M7Gag7ha8aRrGK-58">
          <mxGeometry width="50" height="50" relative="1" as="geometry">
            <mxPoint x="650" y="385" as="sourcePoint" />
            <mxPoint x="700" y="355" as="targetPoint" />
            <Array as="points">
              <mxPoint x="650" y="355" />
            </Array>
          </mxGeometry>
        </mxCell>
        <mxCell id="kzqeV2M7Gag7ha8aRrGK-83" value="" style="endArrow=none;html=1;rounded=0;exitX=1;exitY=0.5;exitDx=0;exitDy=0;entryX=0;entryY=0.5;entryDx=0;entryDy=0;" edge="1" parent="1">
          <mxGeometry width="50" height="50" relative="1" as="geometry">
            <mxPoint x="695" y="355" as="sourcePoint" />
            <mxPoint x="720" y="355" as="targetPoint" />
          </mxGeometry>
        </mxCell>
        <mxCell id="kzqeV2M7Gag7ha8aRrGK-84" value="" style="endArrow=none;html=1;rounded=0;entryX=0;entryY=0.5;entryDx=0;entryDy=0;" edge="1" parent="1" target="kzqeV2M7Gag7ha8aRrGK-78">
          <mxGeometry width="50" height="50" relative="1" as="geometry">
            <mxPoint x="650" y="395" as="sourcePoint" />
            <mxPoint x="560" y="345" as="targetPoint" />
          </mxGeometry>
        </mxCell>
        <mxCell id="kzqeV2M7Gag7ha8aRrGK-85" value="" style="endArrow=none;html=1;rounded=0;entryX=0;entryY=0.5;entryDx=0;entryDy=0;exitX=1;exitY=0.75;exitDx=0;exitDy=0;" edge="1" parent="1" source="kzqeV2M7Gag7ha8aRrGK-58" target="kzqeV2M7Gag7ha8aRrGK-79">
          <mxGeometry width="50" height="50" relative="1" as="geometry">
            <mxPoint x="660" y="435" as="sourcePoint" />
            <mxPoint x="560" y="345" as="targetPoint" />
          </mxGeometry>
        </mxCell>
        <mxCell id="kzqeV2M7Gag7ha8aRrGK-86" value="" style="endArrow=none;html=1;rounded=0;exitX=1;exitY=1;exitDx=0;exitDy=0;entryX=0;entryY=0.5;entryDx=0;entryDy=0;" edge="1" parent="1" source="kzqeV2M7Gag7ha8aRrGK-58" target="kzqeV2M7Gag7ha8aRrGK-80">
          <mxGeometry width="50" height="50" relative="1" as="geometry">
            <mxPoint x="510" y="395" as="sourcePoint" />
            <mxPoint x="560" y="345" as="targetPoint" />
            <Array as="points">
              <mxPoint x="650" y="475" />
            </Array>
          </mxGeometry>
        </mxCell>
        <mxCell id="kzqeV2M7Gag7ha8aRrGK-87" value="&lt;span style=&quot;font-size: 16px;&quot;&gt;id&lt;br&gt;&lt;br&gt;&lt;/span&gt;" style="text;html=1;strokeColor=none;fillColor=none;align=center;verticalAlign=middle;whiteSpace=wrap;rounded=0;" vertex="1" parent="1">
          <mxGeometry x="730" y="347.5" width="60" height="30" as="geometry" />
        </mxCell>
        <mxCell id="kzqeV2M7Gag7ha8aRrGK-88" value="&lt;span style=&quot;font-size: 16px;&quot;&gt;description&lt;/span&gt;" style="text;html=1;strokeColor=none;fillColor=none;align=center;verticalAlign=middle;whiteSpace=wrap;rounded=0;" vertex="1" parent="1">
          <mxGeometry x="757" y="377.5" width="60" height="30" as="geometry" />
        </mxCell>
        <mxCell id="kzqeV2M7Gag7ha8aRrGK-89" value="&lt;span style=&quot;font-size: 16px;&quot;&gt;name&lt;/span&gt;" style="text;html=1;strokeColor=none;fillColor=none;align=center;verticalAlign=middle;whiteSpace=wrap;rounded=0;" vertex="1" parent="1">
          <mxGeometry x="750" y="415" width="60" height="30" as="geometry" />
        </mxCell>
        <mxCell id="kzqeV2M7Gag7ha8aRrGK-90" value="&lt;span style=&quot;font-size: 16px;&quot;&gt;credit&lt;br&gt;&lt;/span&gt;" style="text;html=1;strokeColor=none;fillColor=none;align=center;verticalAlign=middle;whiteSpace=wrap;rounded=0;" vertex="1" parent="1">
          <mxGeometry x="750" y="460" width="60" height="30" as="geometry" />
        </mxCell>
        <mxCell id="kzqeV2M7Gag7ha8aRrGK-91" style="edgeStyle=orthogonalEdgeStyle;rounded=0;orthogonalLoop=1;jettySize=auto;html=1;exitX=0.5;exitY=0;exitDx=0;exitDy=0;" edge="1" parent="1" source="kzqeV2M7Gag7ha8aRrGK-92">
          <mxGeometry relative="1" as="geometry">
            <mxPoint x="590" y="445" as="targetPoint" />
          </mxGeometry>
        </mxCell>
        <mxCell id="kzqeV2M7Gag7ha8aRrGK-92" value="&lt;span style=&quot;font-size: 20px;&quot;&gt;Enterprise account&lt;/span&gt;" style="rounded=0;whiteSpace=wrap;html=1;" vertex="1" parent="1">
          <mxGeometry x="530" y="610" width="120" height="60" as="geometry" />
        </mxCell>
        <mxCell id="kzqeV2M7Gag7ha8aRrGK-93" value="" style="ellipse;whiteSpace=wrap;html=1;aspect=fixed;" vertex="1" parent="1">
          <mxGeometry x="720" y="600" width="20" height="20" as="geometry" />
        </mxCell>
        <mxCell id="kzqeV2M7Gag7ha8aRrGK-94" value="" style="ellipse;whiteSpace=wrap;html=1;aspect=fixed;" vertex="1" parent="1">
          <mxGeometry x="720" y="630" width="20" height="20" as="geometry" />
        </mxCell>
        <mxCell id="kzqeV2M7Gag7ha8aRrGK-95" value="" style="endArrow=none;html=1;rounded=0;entryX=0;entryY=0.5;entryDx=0;entryDy=0;exitX=1;exitY=0;exitDx=0;exitDy=0;" edge="1" parent="1" source="kzqeV2M7Gag7ha8aRrGK-92" target="kzqeV2M7Gag7ha8aRrGK-93">
          <mxGeometry width="50" height="50" relative="1" as="geometry">
            <mxPoint x="660" y="620" as="sourcePoint" />
            <mxPoint x="570" y="535" as="targetPoint" />
          </mxGeometry>
        </mxCell>
        <mxCell id="kzqeV2M7Gag7ha8aRrGK-96" value="" style="endArrow=none;html=1;rounded=0;exitX=1;exitY=0.5;exitDx=0;exitDy=0;entryX=0;entryY=0.5;entryDx=0;entryDy=0;" edge="1" parent="1" source="kzqeV2M7Gag7ha8aRrGK-92" target="kzqeV2M7Gag7ha8aRrGK-94">
          <mxGeometry width="50" height="50" relative="1" as="geometry">
            <mxPoint x="660" y="635" as="sourcePoint" />
            <mxPoint x="570" y="535" as="targetPoint" />
            <Array as="points" />
          </mxGeometry>
        </mxCell>
        <mxCell id="kzqeV2M7Gag7ha8aRrGK-97" value="&lt;span style=&quot;font-size: 16px;&quot;&gt;name&amp;nbsp;&lt;br&gt;&lt;/span&gt;" style="text;html=1;strokeColor=none;fillColor=none;align=center;verticalAlign=middle;whiteSpace=wrap;rounded=0;" vertex="1" parent="1">
          <mxGeometry x="750" y="595" width="60" height="30" as="geometry" />
        </mxCell>
        <mxCell id="kzqeV2M7Gag7ha8aRrGK-98" value="&lt;span style=&quot;font-size: 16px;&quot;&gt;tax&amp;nbsp; id&lt;br&gt;&lt;/span&gt;" style="text;html=1;strokeColor=none;fillColor=none;align=center;verticalAlign=middle;whiteSpace=wrap;rounded=0;" vertex="1" parent="1">
          <mxGeometry x="750" y="630" width="60" height="30" as="geometry" />
        </mxCell>
        <mxCell id="kzqeV2M7Gag7ha8aRrGK-99" value="" style="ellipse;whiteSpace=wrap;html=1;aspect=fixed;fillColor=#FFFFFF;" vertex="1" parent="1">
          <mxGeometry x="720" y="345" width="20" height="20" as="geometry" />
        </mxCell>
        <mxCell id="kzqeV2M7Gag7ha8aRrGK-100" value="&lt;span style=&quot;font-size: 14px;&quot;&gt;Transfer credit&lt;br&gt;&lt;/span&gt;" style="rhombus;whiteSpace=wrap;html=1;" vertex="1" parent="1">
          <mxGeometry x="530" y="200" width="120" height="80" as="geometry" />
        </mxCell>
        <mxCell id="kzqeV2M7Gag7ha8aRrGK-101" value="" style="ellipse;whiteSpace=wrap;html=1;aspect=fixed;fillColor=#1A1A1A;" vertex="1" parent="1">
          <mxGeometry x="566" y="115" width="20" height="20" as="geometry" />
        </mxCell>
        <mxCell id="kzqeV2M7Gag7ha8aRrGK-102" value="&lt;span style=&quot;font-size: 16px;&quot;&gt;completion date&lt;/span&gt;" style="text;html=1;strokeColor=none;fillColor=none;align=center;verticalAlign=middle;whiteSpace=wrap;rounded=0;" vertex="1" parent="1">
          <mxGeometry x="600" y="105" width="60" height="30" as="geometry" />
        </mxCell>
        <mxCell id="kzqeV2M7Gag7ha8aRrGK-103" value="" style="ellipse;whiteSpace=wrap;html=1;aspect=fixed;" vertex="1" parent="1">
          <mxGeometry x="606" y="150" width="20" height="20" as="geometry" />
        </mxCell>
        <mxCell id="kzqeV2M7Gag7ha8aRrGK-104" value="" style="endArrow=none;html=1;rounded=0;exitX=0.5;exitY=1;exitDx=0;exitDy=0;entryX=0.375;entryY=0.132;entryDx=0;entryDy=0;entryPerimeter=0;" edge="1" parent="1" source="kzqeV2M7Gag7ha8aRrGK-101" target="kzqeV2M7Gag7ha8aRrGK-100">
          <mxGeometry width="50" height="50" relative="1" as="geometry">
            <mxPoint x="526" y="130" as="sourcePoint" />
            <mxPoint x="576" y="80" as="targetPoint" />
          </mxGeometry>
        </mxCell>
        <mxCell id="kzqeV2M7Gag7ha8aRrGK-105" value="" style="endArrow=none;html=1;rounded=0;entryX=0.5;entryY=1;entryDx=0;entryDy=0;" edge="1" parent="1" target="kzqeV2M7Gag7ha8aRrGK-103">
          <mxGeometry width="50" height="50" relative="1" as="geometry">
            <mxPoint x="616" y="220" as="sourcePoint" />
            <mxPoint x="576" y="80" as="targetPoint" />
          </mxGeometry>
        </mxCell>
        <mxCell id="kzqeV2M7Gag7ha8aRrGK-106" value="" style="endArrow=none;html=1;rounded=0;entryX=0;entryY=0.5;entryDx=0;entryDy=0;exitX=0;exitY=0;exitDx=0;exitDy=0;" edge="1" parent="1" source="kzqeV2M7Gag7ha8aRrGK-58" target="kzqeV2M7Gag7ha8aRrGK-100">
          <mxGeometry width="50" height="50" relative="1" as="geometry">
            <mxPoint x="310" y="365" as="sourcePoint" />
            <mxPoint x="360" y="315" as="targetPoint" />
          </mxGeometry>
        </mxCell>
        <mxCell id="kzqeV2M7Gag7ha8aRrGK-107" value="" style="endArrow=none;html=1;rounded=0;entryX=1;entryY=0.5;entryDx=0;entryDy=0;exitX=1;exitY=0;exitDx=0;exitDy=0;" edge="1" parent="1" source="kzqeV2M7Gag7ha8aRrGK-58" target="kzqeV2M7Gag7ha8aRrGK-100">
          <mxGeometry width="50" height="50" relative="1" as="geometry">
            <mxPoint x="310" y="365" as="sourcePoint" />
            <mxPoint x="360" y="315" as="targetPoint" />
          </mxGeometry>
        </mxCell>
        <mxCell id="kzqeV2M7Gag7ha8aRrGK-108" value="" style="endArrow=none;html=1;rounded=0;entryX=0;entryY=0.5;entryDx=0;entryDy=0;" edge="1" parent="1" target="kzqeV2M7Gag7ha8aRrGK-100">
          <mxGeometry width="50" height="50" relative="1" as="geometry">
            <mxPoint x="530" y="85" as="sourcePoint" />
            <mxPoint x="585" y="221" as="targetPoint" />
          </mxGeometry>
        </mxCell>
        <mxCell id="kzqeV2M7Gag7ha8aRrGK-109" value="" style="ellipse;whiteSpace=wrap;html=1;aspect=fixed;" vertex="1" parent="1">
          <mxGeometry x="520" y="65" width="20" height="20" as="geometry" />
        </mxCell>
        <mxCell id="kzqeV2M7Gag7ha8aRrGK-110" value="&lt;span style=&quot;font-size: 16px;&quot;&gt;transfer status&lt;/span&gt;" style="text;html=1;strokeColor=none;fillColor=none;align=center;verticalAlign=middle;whiteSpace=wrap;rounded=0;" vertex="1" parent="1">
          <mxGeometry x="640" y="140" width="60" height="30" as="geometry" />
        </mxCell>
        <mxCell id="kzqeV2M7Gag7ha8aRrGK-111" value="&lt;span style=&quot;font-size: 16px;&quot;&gt;amount transferred&lt;/span&gt;" style="text;html=1;strokeColor=none;fillColor=none;align=center;verticalAlign=middle;whiteSpace=wrap;rounded=0;" vertex="1" parent="1">
          <mxGeometry x="560" y="60" width="60" height="30" as="geometry" />
        </mxCell>
        <mxCell id="kzqeV2M7Gag7ha8aRrGK-112" value="" style="endArrow=none;html=1;rounded=0;exitX=1;exitY=1;exitDx=0;exitDy=0;entryX=0;entryY=0.5;entryDx=0;entryDy=0;" edge="1" parent="1" source="kzqeV2M7Gag7ha8aRrGK-58" target="kzqeV2M7Gag7ha8aRrGK-113">
          <mxGeometry width="50" height="50" relative="1" as="geometry">
            <mxPoint x="610" y="475" as="sourcePoint" />
            <mxPoint x="700" y="525" as="targetPoint" />
            <Array as="points">
              <mxPoint x="650" y="515" />
            </Array>
          </mxGeometry>
        </mxCell>
        <mxCell id="kzqeV2M7Gag7ha8aRrGK-113" value="" style="ellipse;whiteSpace=wrap;html=1;aspect=fixed;" vertex="1" parent="1">
          <mxGeometry x="720" y="505" width="20" height="20" as="geometry" />
        </mxCell>
        <mxCell id="kzqeV2M7Gag7ha8aRrGK-114" value="&lt;span style=&quot;font-size: 16px;&quot;&gt;IBAN&lt;br&gt;&lt;/span&gt;" style="text;html=1;strokeColor=none;fillColor=none;align=center;verticalAlign=middle;whiteSpace=wrap;rounded=0;" vertex="1" parent="1">
          <mxGeometry x="740" y="500" width="60" height="30" as="geometry" />
        </mxCell>
        <mxCell id="kzqeV2M7Gag7ha8aRrGK-115" value="&lt;font style=&quot;font-size: 16px;&quot;&gt;(0, n)&lt;/font&gt;" style="text;html=1;strokeColor=none;fillColor=none;align=center;verticalAlign=middle;whiteSpace=wrap;rounded=0;" vertex="1" parent="1">
          <mxGeometry x="660" y="525" width="60" height="30" as="geometry" />
        </mxCell>
        <mxCell id="kzqeV2M7Gag7ha8aRrGK-116" style="edgeStyle=orthogonalEdgeStyle;rounded=0;orthogonalLoop=1;jettySize=auto;html=1;" edge="1" parent="1" source="kzqeV2M7Gag7ha8aRrGK-117">
          <mxGeometry relative="1" as="geometry">
            <mxPoint x="660" y="235" as="targetPoint" />
          </mxGeometry>
        </mxCell>
        <mxCell id="kzqeV2M7Gag7ha8aRrGK-117" value="&lt;span style=&quot;font-size: 14px;&quot;&gt;Transfer Bank&lt;br&gt;&lt;/span&gt;" style="rhombus;whiteSpace=wrap;html=1;" vertex="1" parent="1">
          <mxGeometry x="790" y="195" width="100" height="80" as="geometry" />
        </mxCell>
        <mxCell id="kzqeV2M7Gag7ha8aRrGK-118" value="" style="ellipse;whiteSpace=wrap;html=1;aspect=fixed;fillColor=#1A1A1A;" vertex="1" parent="1">
          <mxGeometry x="860" y="125" width="20" height="20" as="geometry" />
        </mxCell>
        <mxCell id="kzqeV2M7Gag7ha8aRrGK-119" value="" style="endArrow=none;html=1;rounded=0;exitX=0.5;exitY=1;exitDx=0;exitDy=0;entryX=0.375;entryY=0.132;entryDx=0;entryDy=0;entryPerimeter=0;" edge="1" parent="1" source="kzqeV2M7Gag7ha8aRrGK-118">
          <mxGeometry width="50" height="50" relative="1" as="geometry">
            <mxPoint x="820" y="140" as="sourcePoint" />
            <mxPoint x="869" y="221" as="targetPoint" />
          </mxGeometry>
        </mxCell>
        <mxCell id="kzqeV2M7Gag7ha8aRrGK-120" value="&lt;span style=&quot;font-size: 16px;&quot;&gt;issue date&lt;/span&gt;" style="text;html=1;strokeColor=none;fillColor=none;align=center;verticalAlign=middle;whiteSpace=wrap;rounded=0;" vertex="1" parent="1">
          <mxGeometry x="890" y="115" width="60" height="30" as="geometry" />
        </mxCell>
        <mxCell id="kzqeV2M7Gag7ha8aRrGK-121" value="" style="ellipse;whiteSpace=wrap;html=1;aspect=fixed;fillColor=#1A1A1A;" vertex="1" parent="1">
          <mxGeometry x="827" y="70" width="20" height="20" as="geometry" />
        </mxCell>
        <mxCell id="kzqeV2M7Gag7ha8aRrGK-122" value="" style="endArrow=none;html=1;rounded=0;exitX=0.5;exitY=1;exitDx=0;exitDy=0;" edge="1" parent="1" source="kzqeV2M7Gag7ha8aRrGK-121" target="kzqeV2M7Gag7ha8aRrGK-117">
          <mxGeometry width="50" height="50" relative="1" as="geometry">
            <mxPoint x="777" y="92" as="sourcePoint" />
            <mxPoint x="826" y="173" as="targetPoint" />
          </mxGeometry>
        </mxCell>
        <mxCell id="kzqeV2M7Gag7ha8aRrGK-123" value="&lt;span style=&quot;font-size: 16px;&quot;&gt;direction&lt;/span&gt;" style="text;html=1;strokeColor=none;fillColor=none;align=center;verticalAlign=middle;whiteSpace=wrap;rounded=0;" vertex="1" parent="1">
          <mxGeometry x="860" y="65" width="60" height="30" as="geometry" />
        </mxCell>
      </root>
    </mxGraphModel>
  </diagram>
</mxfile>
